<svg xmlns="http://www.w3.org/2000/svg" xmlns:xlink="http://www.w3.org/1999/xlink" width="137.992" height="120.185" version="1.1" viewBox="0 0 103.494 90.139"><g><path fill="#fff" d="M -9.96277 -7.47208 L 9.96278 -7.47208 L 9.96278 7.4720699 L -9.96277 7.4720699 Z" transform="matrix(1,0,0,-1,93.132999,20.270005)"/><clipPath id="cp0"><path d="M -9.96277 -7.47208 L 9.96278 -7.47208 L 9.96278 7.4720699 L -9.96277 7.4720699 Z" transform="matrix(1,0,0,-1,93.132999,20.270005)"/></clipPath><g clip-path="url(#cp0)"><path fill="none" stroke="#000" stroke-linecap="butt" stroke-linejoin="miter" stroke-miterlimit="10" stroke-width=".797" d="M -7.12793 -.66869 C -3.55443 3.58995 3.55443 3.58995 7.12793 -.66869" transform="matrix(1,0,0,-1,93.132999,20.270005)"/><path fill="none" stroke="#000" stroke-linecap="butt" stroke-linejoin="miter" stroke-miterlimit="10" stroke-width=".797" d="M 0 -4.63722 L 6.10446 2.02031" transform="matrix(1,0,0,-1,93.132999,20.270005)"/><path d="M 1.92412 0 C 1.68782 .06175 .64917 .41174 0 .79262 L 0 -.79262 C .64917 -.41174 1.68782 -.06175 1.92412 0 Z" transform="matrix(.67581,-.737,-.737,-.67581,99.23744,18.249695)"/><path fill="none" stroke="#000" stroke-linecap="butt" stroke-linejoin="miter" stroke-miterlimit="10" stroke-width=".789" d="M 1.92412 0 C 1.68782 .06175 .64917 .41174 0 .79262 L 0 -.79262 C .64917 -.41174 1.68782 -.06175 1.92412 0 Z" transform="matrix(.67581,-.737,-.737,-.67581,99.23744,18.249695)"/></g><path fill="none" stroke="#000" stroke-linecap="butt" stroke-linejoin="miter" stroke-miterlimit="10" stroke-width=".797" d="M -9.96277 -7.47208 L 9.96278 -7.47208 L 9.96278 7.4720699 L -9.96277 7.4720699 Z" transform="matrix(1,0,0,-1,93.132999,20.270005)"/><text font-family="CMSY10" font-size="9.963" font-style="italic" transform="matrix(1 0 -0 1 0 90.13901)" xml:space="preserve"><tspan x="86.822" y="-82.667">|</tspan></text><text font-family="CMMI10" font-size="9.963" font-style="italic" transform="matrix(1 0 -0 1 0 90.13901)" xml:space="preserve"><tspan x="89.59" y="-82.667">n</tspan></text><text font-family="CMSY10" font-size="9.963" font-style="italic" transform="matrix(1 0 -0 1 0 90.13901)" xml:space="preserve"><tspan x="95.569" y="-82.667">⟩</tspan></text><path fill="#fff" d="M -9.96277 -7.47208 L 9.96278 -7.47208 L 9.96278 7.4720699 L -9.96277 7.4720699 Z" transform="matrix(1,0,0,-1,93.132999,63.679006)"/><clipPath id="cp1"><path d="M -9.96277 -7.47208 L 9.96278 -7.47208 L 9.96278 7.4720699 L -9.96277 7.4720699 Z" transform="matrix(1,0,0,-1,93.132999,63.679006)"/></clipPath><g clip-path="url(#cp1)"><path fill="none" stroke="#000" stroke-linecap="butt" stroke-linejoin="miter" stroke-miterlimit="10" stroke-width=".797" d="M -7.12793 -.66869 C -3.55443 3.58995 3.55443 3.58995 7.12793 -.66869" transform="matrix(1,0,0,-1,93.132999,63.679006)"/><path fill="none" stroke="#000" stroke-linecap="butt" stroke-linejoin="miter" stroke-miterlimit="10" stroke-width=".797" d="M 0 -4.63722 L 6.10446 2.02031" transform="matrix(1,0,0,-1,93.132999,63.679006)"/><path d="M 1.92412 0 C 1.68782 .06175 .64917 .41174 0 .79262 L 0 -.79262 C .64917 -.41174 1.68782 -.06175 1.92412 0 Z" transform="matrix(.67581,-.737,-.737,-.67581,99.23744,61.658697)"/><path fill="none" stroke="#000" stroke-linecap="butt" stroke-linejoin="miter" stroke-miterlimit="10" stroke-width=".789" d="M 1.92412 0 C 1.68782 .06175 .64917 .41174 0 .79262 L 0 -.79262 C .64917 -.41174 1.68782 -.06175 1.92412 0 Z" transform="matrix(.67581,-.737,-.737,-.67581,99.23744,61.658697)"/></g><path fill="none" stroke="#000" stroke-linecap="butt" stroke-linejoin="miter" stroke-miterlimit="10" stroke-width=".797" d="M -9.96277 -7.47208 L 9.96278 -7.47208 L 9.96278 7.4720699 L -9.96277 7.4720699 Z" transform="matrix(1,0,0,-1,93.132999,63.679006)"/><text font-family="CMSY10" font-size="9.963" font-style="italic" transform="matrix(1 0 -0 1 0 90.13901)" xml:space="preserve"><tspan x="86.822" y="-39.258">|</tspan></text><text font-family="CMMI10" font-size="9.963" font-style="italic" transform="matrix(1 0 -0 1 0 90.13901)" xml:space="preserve"><tspan x="89.59" y="-39.258">n</tspan></text><text font-family="CMSY10" font-size="9.963" font-style="italic" transform="matrix(1 0 -0 1 0 90.13901)" xml:space="preserve"><tspan x="95.569" y="-39.258">⟩</tspan></text><path fill="none" stroke="#000" stroke-linecap="butt" stroke-linejoin="miter" stroke-miterlimit="10" stroke-width=".797" d="M -24.72601 23.13988 L -38.89941 23.13988" transform="matrix(1,0,0,-1,64.595,43.409)"/><path fill="none" stroke="#000" stroke-linecap="butt" stroke-linejoin="miter" stroke-miterlimit="10" stroke-width=".797" d="M -24.72601 -20.26968 L -38.89941 -20.26968" transform="matrix(1,0,0,-1,64.595,43.409)"/><path fill="none" stroke="#000" stroke-linecap="butt" stroke-linejoin="miter" stroke-miterlimit="10" stroke-width=".797" d="M 18.57533 23.13988 L 4.00343 23.13988" transform="matrix(1,0,0,-1,64.595,43.409)"/><path fill="none" stroke="#000" stroke-linecap="butt" stroke-linejoin="miter" stroke-miterlimit="10" stroke-width=".797" d="M 18.57533 -20.26968 L 4.00343 -20.26968" transform="matrix(1,0,0,-1,64.595,43.409)"/><text font-family="CMSY10" font-size="9.963" font-style="italic" transform="matrix(1 0 -0 1 .0000021457673 90.139)" xml:space="preserve"><tspan x="3.892" y="-67.628">|</tspan></text><text font-family="CMR10" font-size="9.963" transform="matrix(1 0 -0 1 .0000021457673 90.139)" xml:space="preserve"><tspan x="6.66" y="-67.628">1</tspan></text><text font-family="CMSY10" font-size="9.963" font-style="italic" transform="matrix(1 0 -0 1 .0000021457673 90.139)" xml:space="preserve"><tspan x="11.641" y="-67.628">⟩</tspan></text><text font-family="CMMI7" font-size="6.974" font-style="italic" transform="matrix(1 0 -0 1 .0000021457673 90.139)" xml:space="preserve"><tspan x="15.515" y="-64.639">L</tspan></text><path fill="#fff" d="M -24.72601 -29.23618 L 4.003441 -29.23618 L 4.003441 32.10638 L -24.72601 32.10638 Z" transform="matrix(1,0,0,-1,64.595,43.409)"/><path fill="none" stroke="#000" stroke-linecap="butt" stroke-linejoin="miter" stroke-miterlimit="10" stroke-width=".797" d="M -24.72601 -29.23618 L 4.003441 -29.23618 L 4.003441 32.10638 L -24.72601 32.10638 Z" transform="matrix(1,0,0,-1,64.595,43.409)"/><text font-family="CMMI10" font-size="9.963" font-style="italic" transform="matrix(1 0 -0 1 .0000038146974 90.139)" xml:space="preserve"><tspan x="43.854" y="-45.674">B</tspan></text><text font-family="CMR10" font-size="9.963" transform="matrix(1 0 -0 1 .0000038146974 90.139)" xml:space="preserve"><tspan x="51.911" y="-45.674">(</tspan></text><text font-family="CMMI10" font-size="9.963" font-style="italic" transform="matrix(1 0 -0 1 .0000038146974 90.139)" xml:space="preserve"><tspan x="55.785" y="-45.674">θ</tspan></text><text font-family="CMR10" font-size="9.963" transform="matrix(1 0 -0 1 .0000038146974 90.139)" xml:space="preserve"><tspan x="60.739" y="-45.674">)</tspan></text><text font-family="CMSY10" font-size="9.963" font-style="italic" transform="matrix(1 0 -0 1 -.00000023841859 90.139)" xml:space="preserve"><tspan x="3.32" y="-24.219">|</tspan></text><text font-family="CMR10" font-size="9.963" transform="matrix(1 0 -0 1 -.00000023841859 90.139)" xml:space="preserve"><tspan x="6.088" y="-24.219">1</tspan></text><text font-family="CMSY10" font-size="9.963" font-style="italic" transform="matrix(1 0 -0 1 -.00000023841859 90.139)" xml:space="preserve"><tspan x="11.069" y="-24.219">⟩</tspan></text><text font-family="CMMI7" font-size="6.974" font-style="italic" transform="matrix(1 0 -0 1 -.00000023841859 90.139)" xml:space="preserve"><tspan x="14.943" y="-21.23">R</tspan></text></g></svg>